{
  "accessors": [
    {
      "bufferView": 2,
      "componentType": 5126,
      "count": 24420,
      "max": [
        -428.03863525390625,
        35.106502532958984,
        97.98160552978516
      ],
      "min": [
        -456.5919189453125,
        25.537601470947266,
        69.40940856933594
      ],
      "type": "VEC3"
    },
    {
      "bufferView": 2,
      "byteOffset": 293040,
      "componentType": 5126,
      "count": 24420,
      "max": [
        0.9997038841247559,
        0.9998819828033447,
        1.0
      ],
      "min": [
        -0.9997730255126953,
        -0.9999951124191284,
        -0.9991583824157715
      ],
      "type": "VEC3"
    },
    {
      "bufferView": 3,
      "componentType": 5126,
      "count": 24420,
      "max": [
        0.9999911189079285,
        0.9997772574424744,
        0.9997549057006836,
        1.0
      ],
      "min": [
        -0.9998782873153687,
        -0.9997081160545349,
        -0.9996503591537476,
        1.0
      ],
      "type": "VEC4"
    },
    {
      "bufferView": 1,
      "componentType": 5126,
      "count": 24420,
      "max": [
        0.997223973274231,
        0.9980469942092896
      ],
      "min": [
        0.0019529999699443579,
        0.0019529999699443579
      ],
      "type": "VEC2"
    },
    {
      "bufferView": 0,
      "componentType": 5125,
      "count": 132984,
      "type": "SCALAR"
    },
    {
      "bufferView": 2,
      "byteOffset": 586080,
      "componentType": 5126,
      "count": 1014,
      "max": [
        -425.2561340332031,
        36.530601501464844,
        99.86560821533203
      ],
      "min": [
        -459.3487243652344,
        25.06650161743164,
        65.77481079101563
      ],
      "type": "VEC3"
    },
    {
      "bufferView": 2,
      "byteOffset": 598248,
      "componentType": 5126,
      "count": 1014,
      "max": [
        1.0,
        0.9990422129631042,
        1.0
      ],
      "min": [
        -1.0,
        -0.9999167323112488,
        -1.0
      ],
      "type": "VEC3"
    },
    {
      "bufferView": 3,
      "byteOffset": 390720,
      "componentType": 5126,
      "count": 1014,
      "max": [
        0.9990323781967163,
        1.0,
        1.0,
        1.0
      ],
      "min": [
        -0.9271591901779175,
        -1.0,
        -1.0,
        1.0
      ],
      "type": "VEC4"
    },
    {
      "bufferView": 1,
      "byteOffset": 195360,
      "componentType": 5126,
      "count": 1014,
      "max": [
        1.8635159730911255,
        0.9980469942092896
      ],
      "min": [
        1.0019530057907104,
        0.0019529999699443579
      ],
      "type": "VEC2"
    },
    {
      "bufferView": 0,
      "byteOffset": 531936,
      "componentType": 5125,
      "count": 4818,
      "type": "SCALAR"
    }
  ],
  "asset": {
    "extras": {
      "author": "Freepoly.org (https://sketchfab.com/blackrray)",
      "license": "CC-BY-4.0 (http://creativecommons.org/licenses/by/4.0/)",
      "source": "https://sketchfab.com/3d-models/exhaust-fan-freepolyorg-13f77dadac4e44fa93978869bebafa0f",
      "title": "Exhaust Fan-Freepoly.org"
    },
    "generator": "Sketchfab-14.64.0",
    "version": "2.0"
  },
  "bufferViews": [
    {
      "buffer": 0,
      "byteLength": 551208,
      "name": "floatBufferViews",
      "target": 34963
    },
    {
      "buffer": 0,
      "byteLength": 203472,
      "byteOffset": 551208,
      "byteStride": 8,
      "name": "floatBufferViews",
      "target": 34962
    },
    {
      "buffer": 0,
      "byteLength": 610416,
      "byteOffset": 754680,
      "byteStride": 12,
      "name": "floatBufferViews",
      "target": 34962
    },
    {
      "buffer": 0,
      "byteLength": 406944,
      "byteOffset": 1365096,
      "byteStride": 16,
      "name": "floatBufferViews",
      "target": 34962
    }
  ],
  "buffers": [
    {
      "byteLength": 1772040,
      "uri": "scene.bin"
    }
  ],
  "images": [
    {
      "uri": "textures/Standardmaterialtr_1001_baseColor.jpeg"
    },
    {
      "uri": "textures/Standardmaterialtr_1001_metallicRoughness.png"
    },
    {
      "uri": "textures/Standardmaterialtr_1001_normal.png"
    },
    {
      "uri": "textures/Standardmaterialtr_1002_baseColor.jpeg"
    },
    {
      "uri": "textures/Standardmaterialtr_1002_metallicRoughness.png"
    },
    {
      "uri": "textures/Standardmaterialtr_1002_normal.png"
    }
  ],
  "materials": [
    {
      "doubleSided": true,
      "name": "Standardmaterialtr_1001",
      "normalTexture": {
        "index": 2
      },
      "occlusionTexture": {
        "index": 1
      },
      "pbrMetallicRoughness": {
        "baseColorTexture": {
          "index": 0
        },
        "metallicRoughnessTexture": {
          "index": 1
        }
      }
    },
    {
      "doubleSided": true,
      "name": "Standardmaterialtr_1002",
      "normalTexture": {
        "index": 5
      },
      "occlusionTexture": {
        "index": 4
      },
      "pbrMetallicRoughness": {
        "baseColorTexture": {
          "index": 3
        },
        "metallicRoughnessTexture": {
          "index": 4
        }
      }
    }
  ],
  "meshes": [
    {
      "name": "defaultMaterial",
      "primitives": [
        {
          "attributes": {
            "NORMAL": 1,
            "POSITION": 0,
            "TANGENT": 2,
            "TEXCOORD_0": 3
          },
          "indices": 4,
          "material": 0,
          "mode": 4
        }
      ]
    },
    {
      "name": "defaultMaterial",
      "primitives": [
        {
          "attributes": {
            "NORMAL": 6,
            "POSITION": 5,
            "TANGENT": 7,
            "TEXCOORD_0": 8
          },
          "indices": 9,
          "material": 1,
          "mode": 4
        }
      ]
    }
  ],
  "nodes": [
    {
      "children": [
        1
      ],
      "matrix": [
        0.0049110050313174725,
        0.0,
        0.0,
        0.0,
        0.0,
        1.0904621719637292e-18,
        -0.0049110050313174725,
        0.0,
        0.0,
        0.0049110050313174725,
        1.0904621719637292e-18,
        0.0,
        0.0,
        0.0,
        0.0,
        1.0
      ],
      "name": "Sketchfab_model"
    },
    {
      "children": [
        2
      ],
      "matrix": [
        1.0,
        0.0,
        0.0,
        0.0,
        0.0,
        -4.371139006309477e-08,
        0.999999999999999,
        0.0,
        0.0,
        -0.999999999999999,
        -4.371139006309477e-08,
        0.0,
        0.0,
        0.0,
        0.0,
        1.0
      ],
      "name": "Collada visual scene group"
    },
    {
      "children": [
        3,
        4
      ],
      "matrix": [
        1.0,
        0.0,
        0.0,
        0.0,
        0.0,
        0.0,
        -1.0,
        0.0,
        0.0,
        1.0,
        0.0,
        0.0,
        0.0,
        0.0,
        0.0,
        1.0
      ],
      "name": "Obj3d66_746812_6_476"
    },
    {
      "mesh": 0,
      "name": "defaultMaterial"
    },
    {
      "mesh": 1,
      "name": "defaultMaterial"
    }
  ],
  "samplers": [
    {
      "magFilter": 9729,
      "minFilter": 9987,
      "wrapS": 10497,
      "wrapT": 10497
    }
  ],
  "scene": 0,
  "scenes": [
    {
      "name": "Sketchfab_Scene",
      "nodes": [
        0
      ]
    }
  ],
  "textures": [
    {
      "sampler": 0,
      "source": 0
    },
    {
      "sampler": 0,
      "source": 1
    },
    {
      "sampler": 0,
      "source": 2
    },
    {
      "sampler": 0,
      "source": 3
    },
    {
      "sampler": 0,
      "source": 4
    },
    {
      "sampler": 0,
      "source": 5
    }
  ]
}
